<svg xmlns="http://www.w3.org/2000/svg" viewBox="0 0 21 22" width="21" height="22">
	<defs>
		<clipPath clipPathUnits="userSpaceOnUse" id="cp1">
			<path d="M-312 -350L63 -350L63 462L-312 462Z" />
		</clipPath>
	</defs>
	<style>
		tspan { white-space:pre }
		.shp0 { fill: #28d0dd } 
	</style>
	<g id="1" clip-path="url(#cp1)">
		<g id="Form">
			<path id="Shape 5" class="shp0" d="M10 22C5.05 22 1 17.95 1 13C1 8.05 5.05 4 10 4C14.95 4 19 8.05 19 13C19 17.95 14.95 22 10 22ZM15.04 8.14L8.2 14.98L4.96 11.74L3.7 13L8.2 17.5L16.3 9.4L15.04 8.14Z" />
			<path id="Ellipse 2" class="shp0" d="M16,3.5c0,1.38 1.12,2.5 2.5,2.5c1.38,0 2.5,-1.12 2.5,-2.5c0,-1.38 -1.12,-2.5 -2.5,-2.5c-1.38,0 -2.5,1.12 -2.5,2.5z" />
		</g>
	</g>
</svg>