<svg xmlns="http://www.w3.org/2000/svg" viewBox="0 0 23 23" width="23" height="23">
	<defs>
		<clipPath clipPathUnits="userSpaceOnUse" id="cp1">
			<path d="M-311 -418L64 -418L64 394L-311 394Z" />
		</clipPath>
		<linearGradient id="grd1" gradientUnits="userSpaceOnUse"  x1="-4.256" y1="11.501" x2="27.254" y2="11.501">
			<stop offset="0" stop-color="#17ead9"  />
			<stop offset="1" stop-color="#6078ea"  />
		</linearGradient>
	</defs>
	<style>
		tspan { white-space:pre }
		.shp0 { fill: url(#grd1) } 
	</style>
	<g id="1" clip-path="url(#cp1)">
		<g id="Form">
			<path id="Forma 1 copy" class="shp0" d="M12.71,12.71c1.7,0 3.08,-1.44 3.08,-3.21c0,-1.51 -1.01,-2.8 -2.39,-3.13c-0.49,-3.09 -3.06,-5.45 -6.15,-5.45c-3.44,0 -6.24,2.93 -6.24,6.52c0,3.6 2.8,6.52 6.24,6.52c1.56,0 2.99,-0.61 4.08,-1.6c0.43,0.23 0.9,0.35 1.38,0.35zM20.05,0c-1.08,0 -1.95,0.92 -1.95,2.04c0,1.13 0.88,2.04 1.95,2.04c1.08,0 1.95,-0.92 1.95,-2.04c0,-1.13 -0.88,-2.04 -1.95,-2.04zM16.65,14.57c-2.22,0 -4.03,1.89 -4.03,4.21c0,2.32 1.81,4.21 4.03,4.21c2.22,0 4.03,-1.89 4.03,-4.21c0,-2.32 -1.81,-4.21 -4.03,-4.21zM-6.32,30.19M6.49,16.24c-1.08,0 -1.95,0.92 -1.95,2.04c0,1.13 0.88,2.04 1.95,2.04c1.08,0 1.95,-0.92 1.95,-2.04c0,-1.13 -0.88,-2.04 -1.95,-2.04z" />
		</g>
	</g>
</svg>